<svg width="80" height="81" viewBox="0 0 80 81" fill="none" xmlns="http://www.w3.org/2000/svg">
<g filter="url(#filter0_d_26_11662)">
<rect x="1.5" y="1.78491" width="75" height="75" rx="7.5" stroke="#878787" stroke-opacity="0.4" shape-rendering="crispEdges"/>
<g clip-path="url(#clip0_26_11662)">
<path d="M58.5839 52.692C57.858 54.369 56.9988 55.9126 56.0033 57.3318C54.6463 59.2666 53.5352 60.6058 52.6789 61.3495C51.3516 62.5702 49.9294 63.1954 48.4065 63.2309C47.3132 63.2309 45.9947 62.9198 44.4599 62.2887C42.9201 61.6606 41.5051 61.3495 40.2112 61.3495C38.8542 61.3495 37.3988 61.6606 35.8421 62.2887C34.2831 62.9198 33.0271 63.2487 32.0668 63.2813C30.6064 63.3435 29.1508 62.7006 27.6978 61.3495C26.7704 60.5406 25.6105 59.154 24.2209 57.1896C22.73 55.0919 21.5042 52.6594 20.544 49.8861C19.5155 46.8907 19 43.99 19 41.1818C19 37.965 19.6951 35.1906 21.0873 32.8656C22.1815 30.9981 23.6372 29.525 25.4591 28.4435C27.2809 27.3621 29.2495 26.811 31.3694 26.7757C32.5293 26.7757 34.0505 27.1345 35.9408 27.8397C37.8258 28.5472 39.0361 28.906 39.5667 28.906C39.9635 28.906 41.308 28.4865 43.5874 27.6501C45.7428 26.8744 47.562 26.5532 49.0524 26.6797C53.0908 27.0056 56.1247 28.5976 58.1425 31.4657C54.5307 33.654 52.7441 36.7191 52.7797 40.6512C52.8123 43.7139 53.9233 46.2625 56.107 48.2862C57.0966 49.2254 58.2017 49.9513 59.4313 50.4669C59.1646 51.2402 58.8832 51.9809 58.5839 52.692ZM49.322 16.2457C49.322 18.6462 48.445 20.8876 46.6969 22.9622C44.5873 25.4285 42.0357 26.8537 39.2687 26.6288C39.2334 26.3408 39.213 26.0377 39.213 25.7192C39.213 23.4146 40.2162 20.9483 41.9978 18.9318C42.8872 17.9108 44.0185 17.0619 45.3903 16.3846C46.7591 15.7175 48.0539 15.3486 49.2716 15.2854C49.3072 15.6063 49.322 15.9273 49.322 16.2456V16.2457Z" fill="#0B0A0A"/>
</g>
</g>
<defs>
<filter id="filter0_d_26_11662" x="0" y="0.284912" width="80" height="80" filterUnits="userSpaceOnUse" color-interpolation-filters="sRGB">
<feFlood flood-opacity="0" result="BackgroundImageFix"/>
<feColorMatrix in="SourceAlpha" type="matrix" values="0 0 0 0 0 0 0 0 0 0 0 0 0 0 0 0 0 0 127 0" result="hardAlpha"/>
<feOffset dx="1" dy="1"/>
<feGaussianBlur stdDeviation="1"/>
<feComposite in2="hardAlpha" operator="out"/>
<feColorMatrix type="matrix" values="0 0 0 0 0.992157 0 0 0 0 0.996078 0 0 0 0 0.996078 0 0 0 0.5 0"/>
<feBlend mode="normal" in2="BackgroundImageFix" result="effect1_dropShadow_26_11662"/>
<feBlend mode="normal" in="SourceGraphic" in2="effect1_dropShadow_26_11662" result="shape"/>
</filter>
<clipPath id="clip0_26_11662">
<rect width="48" height="48" fill="white" transform="translate(15 15.2849)"/>
</clipPath>
</defs>
</svg>


