<svg width="80" height="81" viewBox="0 0 80 81" fill="none" xmlns="http://www.w3.org/2000/svg">
<g filter="url(#filter0_d_26_11669)">
<rect x="1.5" y="1.78491" width="75" height="75" rx="7.5" stroke="#878787" stroke-opacity="0.4" shape-rendering="crispEdges"/>
<g clip-path="url(#clip0_26_11669)">
<path d="M59.4567 15.2849H18.5433C17.6036 15.2849 16.7023 15.6582 16.0378 16.3227C15.3733 16.9872 15 17.8885 15 18.8282V59.7416C15 60.6813 15.3733 61.5826 16.0378 62.2471C16.7023 62.9116 17.6036 63.2849 18.5433 63.2849H59.4567C60.3964 63.2849 61.2977 62.9116 61.9622 62.2471C62.6267 61.5826 63 60.6813 63 59.7416V18.8282C63 17.8885 62.6267 16.9872 61.9622 16.3227C61.2977 15.6582 60.3964 15.2849 59.4567 15.2849ZM29.3067 56.1749H22.09V33.2516H29.3067V56.1749ZM25.6933 30.0749C24.8747 30.0703 24.0758 29.8233 23.3975 29.3651C22.7191 28.9069 22.1917 28.258 21.8818 27.5003C21.5718 26.7426 21.4933 25.9101 21.6561 25.1078C21.8188 24.3055 22.2156 23.5695 22.7963 22.9925C23.377 22.4155 24.1156 22.0234 24.9189 21.8658C25.7222 21.7082 26.5542 21.7921 27.3099 22.1069C28.0656 22.4217 28.7111 22.9532 29.1649 23.6345C29.6188 24.3158 29.8606 25.1163 29.86 25.9349C29.8677 26.483 29.765 27.027 29.558 27.5345C29.351 28.0421 29.044 28.5027 28.6551 28.889C28.2663 29.2754 27.8037 29.5795 27.2948 29.7832C26.786 29.9869 26.2413 30.0862 25.6933 30.0749ZM55.9067 56.1949H48.6933V43.6716C48.6933 39.9782 47.1233 38.8382 45.0967 38.8382C42.9567 38.8382 40.8567 40.4516 40.8567 43.7649V56.1949H33.64V33.2682H40.58V36.4449H40.6733C41.37 35.0349 43.81 32.6249 47.5333 32.6249C51.56 32.6249 55.91 35.0149 55.91 42.0149L55.9067 56.1949Z" fill="#0A66C2"/>
</g>
</g>
<defs>
<filter id="filter0_d_26_11669" x="0" y="0.284912" width="80" height="80" filterUnits="userSpaceOnUse" color-interpolation-filters="sRGB">
<feFlood flood-opacity="0" result="BackgroundImageFix"/>
<feColorMatrix in="SourceAlpha" type="matrix" values="0 0 0 0 0 0 0 0 0 0 0 0 0 0 0 0 0 0 127 0" result="hardAlpha"/>
<feOffset dx="1" dy="1"/>
<feGaussianBlur stdDeviation="1"/>
<feComposite in2="hardAlpha" operator="out"/>
<feColorMatrix type="matrix" values="0 0 0 0 0.992157 0 0 0 0 0.996078 0 0 0 0 0.996078 0 0 0 0.5 0"/>
<feBlend mode="normal" in2="BackgroundImageFix" result="effect1_dropShadow_26_11669"/>
<feBlend mode="normal" in="SourceGraphic" in2="effect1_dropShadow_26_11669" result="shape"/>
</filter>
<clipPath id="clip0_26_11669">
<rect width="48" height="48" fill="white" transform="translate(15 15.2849)"/>
</clipPath>
</defs>
</svg>
